<?xml version="1.0" encoding="utf-8"?>
<!-- Generator: Adobe Illustrator 25.0.0, SVG Export Plug-In . SVG Version: 6.00 Build 0)  -->
<svg version="1.1" id="Layer_1" xmlns="http://www.w3.org/2000/svg" xmlns:xlink="http://www.w3.org/1999/xlink" x="0px" y="0px"
	 viewBox="0 0 40 40" style="enable-background:new 0 0 40 40;" xml:space="preserve">
<style type="text/css">
	.st0{fill:#BFBFBF;}
	.st1{fill:#E60012;}
	.st2{fill:#FFD1AE;}
	.st3{fill:#432918;}
	.st4{fill:#FFFFFF;}
	.st5{fill:#AD000E;}
	.st6{fill:#1D1D1B;}
	.st7{fill:#FFE3CE;}
	.st8{fill:none;stroke:#E60012;stroke-width:2;stroke-linecap:round;stroke-miterlimit:10;}
	.st9{fill:url(#SVGID_1_);}
	.st10{fill:#F5606A;}
	.st11{fill:#F9A0A6;}
	.st12{fill:#FF4469;}
	.st13{fill:url(#SVGID_2_);}
	.st14{fill:url(#SVGID_3_);}
	.st15{fill:none;stroke:#1D1D1B;stroke-linecap:round;stroke-miterlimit:10;}
	.st16{fill:#FF5369;}
	.st17{fill:none;stroke:#FFFFFF;stroke-linecap:round;stroke-miterlimit:10;}
	.st18{fill:none;stroke:#E60012;stroke-width:2;stroke-linecap:round;stroke-linejoin:round;stroke-miterlimit:10;}
	.st19{fill:#1878F3;}
	.st20{fill:#54ACED;}
	.st21{fill:#F30074;}
	.st22{filter:url(#Adobe_OpacityMaskFilter);}
	.st23{filter:url(#Adobe_OpacityMaskFilter_1_);}
	.st24{mask:url(#SVGID_4_);fill:url(#SVGID_5_);}
	.st25{fill:#FF0000;}
	.st26{fill:#9F32FF;}
	.st27{fill:#5865F2;}
	.st28{fill:#006699;}
	.st29{fill:#FECC47;}
	.st30{fill:#010101;}
	.st31{fill:#FF5300;}
	.st32{fill:#70D755;}
	.st33{fill:#FF9900;}
	.st34{fill-rule:evenodd;clip-rule:evenodd;}
	.st35{fill:#333333;}
	.st36{fill-rule:evenodd;clip-rule:evenodd;fill:#EE1D52;}
	.st37{fill-rule:evenodd;clip-rule:evenodd;fill:#FFFFFF;}
	.st38{fill-rule:evenodd;clip-rule:evenodd;fill:#69C9D0;}
	.st39{filter:url(#Adobe_OpacityMaskFilter_2_);}
	.st40{filter:url(#Adobe_OpacityMaskFilter_3_);}
	.st41{mask:url(#SVGID_6_);fill:url(#SVGID_7_);}
	.st42{fill:#6BCDFD;}
	.st43{fill:url(#SVGID_8_);}
	.st44{fill:none;stroke:#1D1D1B;stroke-width:2;stroke-linecap:round;stroke-miterlimit:10;}
	.st45{fill:#58AEFF;}
	.st46{fill:url(#SVGID_9_);}
	.st47{fill:url(#SVGID_10_);}
	.st48{fill:url(#SVGID_11_);}
	.st49{fill:url(#SVGID_12_);}
	.st50{fill:none;stroke:#E60012;stroke-width:2;stroke-miterlimit:10;}
	.st51{fill:none;stroke:#E60012;stroke-width:4;stroke-linecap:round;stroke-miterlimit:10;}
	.st52{fill:none;stroke:#6BCDFD;stroke-width:4;stroke-linecap:round;stroke-linejoin:round;stroke-miterlimit:10;}
</style>
<g>
	<circle class="st27" cx="20" cy="20" r="20"/>
	<g>
		<g>
			<path class="st4" d="M27.62,13.01c-1.4-0.64-2.91-1.12-4.48-1.39c-0.03-0.01-0.06,0.01-0.07,0.03c-0.19,0.34-0.41,0.79-0.56,1.15
				c-1.69-0.25-3.37-0.25-5.03,0c-0.15-0.36-0.37-0.8-0.57-1.15c-0.01-0.03-0.04-0.04-0.07-0.03c-1.57,0.27-3.07,0.74-4.48,1.39
				c-0.01,0.01-0.02,0.01-0.03,0.03c-2.85,4.26-3.63,8.42-3.25,12.52c0,0.02,0.01,0.04,0.03,0.05c1.88,1.38,3.7,2.22,5.49,2.78
				c0.03,0.01,0.06,0,0.08-0.03c0.42-0.58,0.8-1.19,1.12-1.83c0.02-0.04,0-0.08-0.04-0.1c-0.6-0.23-1.17-0.5-1.72-0.82
				c-0.04-0.03-0.05-0.09-0.01-0.12c0.12-0.09,0.23-0.18,0.34-0.27c0.02-0.02,0.05-0.02,0.07-0.01c3.6,1.64,7.5,1.64,11.06,0
				c0.02-0.01,0.05-0.01,0.07,0.01c0.11,0.09,0.23,0.18,0.34,0.27c0.04,0.03,0.04,0.09-0.01,0.12c-0.55,0.32-1.12,0.59-1.72,0.82
				c-0.04,0.01-0.06,0.06-0.04,0.1c0.33,0.64,0.71,1.25,1.12,1.83c0.02,0.02,0.05,0.03,0.08,0.03c1.8-0.56,3.62-1.4,5.5-2.78
				c0.02-0.01,0.03-0.03,0.03-0.05c0.46-4.75-0.77-8.87-3.25-12.52C27.65,13.02,27.64,13.01,27.62,13.01z M16.35,23.05
				c-1.08,0-1.98-1-1.98-2.22s0.88-2.22,1.98-2.22c1.11,0,1.99,1,1.98,2.22C18.33,22.06,17.45,23.05,16.35,23.05z M23.66,23.05
				c-1.08,0-1.98-1-1.98-2.22s0.88-2.22,1.98-2.22c1.11,0,1.99,1,1.98,2.22C25.64,22.06,24.77,23.05,23.66,23.05z"/>
		</g>
	</g>
</g>
</svg>
