<?xml version="1.0" encoding="utf-8"?>
<!-- Generator: Adobe Illustrator 25.0.0, SVG Export Plug-In . SVG Version: 6.00 Build 0)  -->
<svg version="1.1" id="Layer_1" xmlns="http://www.w3.org/2000/svg" xmlns:xlink="http://www.w3.org/1999/xlink" x="0px" y="0px"
	 viewBox="0 0 40 40" style="enable-background:new 0 0 40 40;" xml:space="preserve">
<style type="text/css">
	.st0{fill:#BFBFBF;}
	.st1{fill:#E60012;}
	.st2{fill:#FFD1AE;}
	.st3{fill:#432918;}
	.st4{fill:#FFFFFF;}
	.st5{fill:#AD000E;}
	.st6{fill:#1D1D1B;}
	.st7{fill:#FFE3CE;}
	.st8{fill:none;stroke:#E60012;stroke-width:2;stroke-linecap:round;stroke-miterlimit:10;}
	.st9{fill:url(#SVGID_1_);}
	.st10{fill:#F5606A;}
	.st11{fill:#F9A0A6;}
	.st12{fill:#FF4469;}
	.st13{fill:url(#SVGID_2_);}
	.st14{fill:url(#SVGID_3_);}
	.st15{fill:none;stroke:#1D1D1B;stroke-linecap:round;stroke-miterlimit:10;}
	.st16{fill:#FF5369;}
	.st17{fill:none;stroke:#FFFFFF;stroke-linecap:round;stroke-miterlimit:10;}
	.st18{fill:none;stroke:#E60012;stroke-width:2;stroke-linecap:round;stroke-linejoin:round;stroke-miterlimit:10;}
	.st19{fill:#1878F3;}
	.st20{fill:#54ACED;}
	.st21{fill:#F30074;}
	.st22{filter:url(#Adobe_OpacityMaskFilter);}
	.st23{filter:url(#Adobe_OpacityMaskFilter_1_);}
	.st24{mask:url(#SVGID_4_);fill:url(#SVGID_5_);}
	.st25{fill:#FF0000;}
	.st26{fill:#9F32FF;}
	.st27{fill:#5865F2;}
	.st28{fill:#006699;}
	.st29{fill:#FECC47;}
	.st30{fill:#010101;}
	.st31{fill:#FF5300;}
	.st32{fill:#70D755;}
	.st33{fill:#FF9900;}
	.st34{fill-rule:evenodd;clip-rule:evenodd;}
	.st35{fill:#333333;}
	.st36{fill-rule:evenodd;clip-rule:evenodd;fill:#EE1D52;}
	.st37{fill-rule:evenodd;clip-rule:evenodd;fill:#FFFFFF;}
	.st38{fill-rule:evenodd;clip-rule:evenodd;fill:#69C9D0;}
	.st39{filter:url(#Adobe_OpacityMaskFilter_2_);}
	.st40{filter:url(#Adobe_OpacityMaskFilter_3_);}
	.st41{mask:url(#SVGID_6_);fill:url(#SVGID_7_);}
	.st42{fill:#6BCDFD;}
	.st43{fill:url(#SVGID_8_);}
	.st44{fill:none;stroke:#1D1D1B;stroke-width:2;stroke-linecap:round;stroke-miterlimit:10;}
	.st45{fill:#58AEFF;}
	.st46{fill:url(#SVGID_9_);}
	.st47{fill:url(#SVGID_10_);}
	.st48{fill:url(#SVGID_11_);}
	.st49{fill:url(#SVGID_12_);}
	.st50{fill:none;stroke:#E60012;stroke-width:2;stroke-miterlimit:10;}
	.st51{fill:none;stroke:#E60012;stroke-width:4;stroke-linecap:round;stroke-miterlimit:10;}
	.st52{fill:none;stroke:#6BCDFD;stroke-width:4;stroke-linecap:round;stroke-linejoin:round;stroke-miterlimit:10;}
</style>
<g>
	<circle class="st21" cx="20" cy="20" r="20"/>
	<g>
		<path class="st4" d="M29.94,15.87c-0.05-1.06-0.22-1.79-0.47-2.43c-0.26-0.66-0.6-1.22-1.15-1.77c-0.55-0.55-1.11-0.9-1.77-1.15
			c-0.64-0.25-1.36-0.42-2.43-0.47C23.06,10.01,22.72,10,20.01,10c-2.72,0-3.06,0.01-4.12,0.06s-1.79,0.22-2.43,0.47
			c-0.66,0.26-1.22,0.6-1.77,1.15c-0.55,0.55-0.9,1.11-1.15,1.77c-0.25,0.64-0.42,1.37-0.47,2.43c-0.05,1.07-0.06,1.41-0.06,4.12
			c0,2.72,0.01,3.06,0.06,4.12c0.05,1.06,0.22,1.79,0.47,2.43c0.26,0.66,0.6,1.22,1.15,1.77s1.11,0.9,1.77,1.15
			c0.64,0.25,1.36,0.42,2.43,0.47c1.07,0.05,1.41,0.06,4.12,0.06c2.72,0,3.06-0.01,4.12-0.06c1.06-0.05,1.79-0.22,2.43-0.47
			c0.66-0.26,1.22-0.6,1.77-1.15s0.9-1.11,1.15-1.77c0.25-0.64,0.42-1.37,0.47-2.43C29.99,23.05,30,22.71,30,20
			S29.99,16.94,29.94,15.87z M28.14,24.04c-0.04,0.98-0.21,1.51-0.35,1.86c-0.18,0.47-0.4,0.8-0.75,1.15s-0.68,0.56-1.15,0.75
			c-0.35,0.14-0.88,0.3-1.86,0.35c-1.05,0.05-1.37,0.06-4.04,0.06s-2.99-0.01-4.04-0.06c-0.98-0.04-1.51-0.21-1.86-0.35
			c-0.47-0.18-0.8-0.4-1.15-0.75c-0.35-0.35-0.56-0.69-0.75-1.15c-0.14-0.35-0.3-0.88-0.35-1.86c-0.05-1.05-0.06-1.37-0.06-4.04
			s0.01-2.99,0.06-4.04c0.04-0.98,0.21-1.51,0.35-1.86c0.18-0.47,0.4-0.8,0.75-1.15c0.35-0.35,0.68-0.56,1.15-0.75
			c0.35-0.14,0.88-0.3,1.86-0.35c1.05-0.05,1.37-0.06,4.04-0.06s2.99,0.01,4.04,0.06c0.98,0.04,1.51,0.21,1.86,0.35
			c0.47,0.18,0.8,0.4,1.15,0.75c0.35,0.35,0.56,0.69,0.75,1.15c0.14,0.35,0.3,0.88,0.35,1.86c0.05,1.05,0.06,1.37,0.06,4.04
			S28.19,22.98,28.14,24.04z"/>
		<path class="st4" d="M20,14.86c-2.84,0-5.13,2.3-5.13,5.14c0,2.84,2.3,5.14,5.13,5.14s5.13-2.3,5.13-5.14
			C25.13,17.16,22.84,14.86,20,14.86z M20,23.33c-1.84,0-3.33-1.49-3.33-3.33c0-1.84,1.49-3.33,3.33-3.33
			c1.84,0,3.33,1.49,3.33,3.33C23.33,21.84,21.84,23.33,20,23.33z"/>
		<circle class="st4" cx="25.34" cy="14.66" r="1.2"/>
		<defs>
			<filter id="Adobe_OpacityMaskFilter" filterUnits="userSpaceOnUse" x="10" y="10" width="19.99" height="20">
				<feFlood  style="flood-color:white;flood-opacity:1" result="back"/>
				<feBlend  in="SourceGraphic" in2="back" mode="normal"/>
			</filter>
		</defs>
		<mask maskUnits="userSpaceOnUse" x="10" y="10" width="19.99" height="20" id="SVGID_1_">
			<g class="st22">
				<defs>
					<filter id="Adobe_OpacityMaskFilter_1_" filterUnits="userSpaceOnUse" x="10" y="10" width="19.99" height="20">
						<feFlood  style="flood-color:white;flood-opacity:1" result="back"/>
						<feBlend  in="SourceGraphic" in2="back" mode="normal"/>
					</filter>
				</defs>
				<mask maskUnits="userSpaceOnUse" x="10" y="10" width="19.99" height="20" id="SVGID_1_">
				</mask>
				
					<linearGradient id="SVGID_2_" gradientUnits="userSpaceOnUse" x1="14697.4697" y1="13916.9326" x2="14706.3154" y2="13895.834" gradientTransform="matrix(-1 0 0 -1 14722 13926.1104)">
					<stop  offset="0.2341" style="stop-color:#000000"/>
					<stop  offset="0.4512" style="stop-color:#808080"/>
					<stop  offset="0.7524" style="stop-color:#FFFFFF"/>
					<stop  offset="0.9624" style="stop-color:#FFFFFF"/>
				</linearGradient>
				<path style="mask:url(#SVGID_1_);fill:url(#SVGID_2_);" d="M10,20c0,2.72,0.01,3.06,0.06,4.12c0.05,1.06,0.22,1.79,0.47,2.43
					c0.26,0.66,0.6,1.22,1.15,1.77c0.55,0.55,1.11,0.9,1.77,1.15c0.64,0.25,1.36,0.42,2.43,0.47c1.07,0.05,1.41,0.06,4.12,0.06
					c2.72,0,3.06-0.01,4.12-0.06c1.06-0.05,1.79-0.22,2.43-0.47c0.66-0.26,1.22-0.6,1.77-1.15s0.9-1.11,1.15-1.77
					c0.25-0.64,0.42-1.37,0.47-2.43c0.05-1.07,0.06-1.41,0.06-4.12c0-2.72-0.01-3.06-0.06-4.12c-0.05-1.06-0.22-1.79-0.47-2.43
					c-0.26-0.66-0.6-1.22-1.15-1.77c-0.55-0.55-1.11-0.9-1.77-1.15c-0.64-0.25-1.36-0.42-2.43-0.47C23.05,10.01,22.71,10,19.99,10
					c-2.72,0-3.06,0.01-4.12,0.06s-1.79,0.22-2.43,0.47c-0.66,0.26-1.22,0.6-1.77,1.15c-0.55,0.55-0.9,1.11-1.15,1.77
					c-0.25,0.64-0.42,1.37-0.47,2.43C10.01,16.94,10,17.28,10,20z M11.8,20c0-2.67,0.01-2.99,0.06-4.04
					c0.04-0.98,0.21-1.51,0.35-1.86c0.18-0.47,0.4-0.8,0.75-1.15c0.35-0.35,0.68-0.56,1.15-0.75c0.35-0.14,0.88-0.3,1.86-0.35
					c1.05-0.05,1.37-0.06,4.04-0.06s2.99,0.01,4.04,0.06c0.98,0.04,1.51,0.21,1.86,0.35c0.47,0.18,0.8,0.4,1.15,0.75
					c0.35,0.35,0.56,0.69,0.75,1.15c0.14,0.35,0.3,0.88,0.35,1.86c0.05,1.05,0.06,1.37,0.06,4.04s-0.01,2.99-0.06,4.04
					c-0.04,0.98-0.21,1.51-0.35,1.86c-0.18,0.47-0.4,0.8-0.75,1.15s-0.68,0.56-1.15,0.75c-0.35,0.14-0.88,0.3-1.86,0.35
					c-1.05,0.05-1.37,0.06-4.04,0.06s-2.99-0.01-4.04-0.06c-0.98-0.04-1.51-0.21-1.86-0.35c-0.47-0.18-0.8-0.4-1.15-0.75
					s-0.56-0.69-0.75-1.15c-0.14-0.35-0.3-0.88-0.35-1.86C11.81,22.98,11.8,22.67,11.8,20z"/>
			</g>
		</mask>
		<path class="st4" d="M10,20c0,2.72,0.01,3.06,0.06,4.12c0.05,1.06,0.22,1.79,0.47,2.43c0.26,0.66,0.6,1.22,1.15,1.77
			c0.55,0.55,1.11,0.9,1.77,1.15c0.64,0.25,1.36,0.42,2.43,0.47c1.07,0.05,1.41,0.06,4.12,0.06c2.72,0,3.06-0.01,4.12-0.06
			c1.06-0.05,1.79-0.22,2.43-0.47c0.66-0.26,1.22-0.6,1.77-1.15s0.9-1.11,1.15-1.77c0.25-0.64,0.42-1.37,0.47-2.43
			c0.05-1.07,0.06-1.41,0.06-4.12c0-2.72-0.01-3.06-0.06-4.12c-0.05-1.06-0.22-1.79-0.47-2.43c-0.26-0.66-0.6-1.22-1.15-1.77
			c-0.55-0.55-1.11-0.9-1.77-1.15c-0.64-0.25-1.36-0.42-2.43-0.47C23.05,10.01,22.71,10,19.99,10c-2.72,0-3.06,0.01-4.12,0.06
			s-1.79,0.22-2.43,0.47c-0.66,0.26-1.22,0.6-1.77,1.15c-0.55,0.55-0.9,1.11-1.15,1.77c-0.25,0.64-0.42,1.37-0.47,2.43
			C10.01,16.94,10,17.28,10,20z M11.8,20c0-2.67,0.01-2.99,0.06-4.04c0.04-0.98,0.21-1.51,0.35-1.86c0.18-0.47,0.4-0.8,0.75-1.15
			c0.35-0.35,0.68-0.56,1.15-0.75c0.35-0.14,0.88-0.3,1.86-0.35c1.05-0.05,1.37-0.06,4.04-0.06s2.99,0.01,4.04,0.06
			c0.98,0.04,1.51,0.21,1.86,0.35c0.47,0.18,0.8,0.4,1.15,0.75c0.35,0.35,0.56,0.69,0.75,1.15c0.14,0.35,0.3,0.88,0.35,1.86
			c0.05,1.05,0.06,1.37,0.06,4.04s-0.01,2.99-0.06,4.04c-0.04,0.98-0.21,1.51-0.35,1.86c-0.18,0.47-0.4,0.8-0.75,1.15
			s-0.68,0.56-1.15,0.75c-0.35,0.14-0.88,0.3-1.86,0.35c-1.05,0.05-1.37,0.06-4.04,0.06s-2.99-0.01-4.04-0.06
			c-0.98-0.04-1.51-0.21-1.86-0.35c-0.47-0.18-0.8-0.4-1.15-0.75s-0.56-0.69-0.75-1.15c-0.14-0.35-0.3-0.88-0.35-1.86
			C11.81,22.98,11.8,22.67,11.8,20z"/>
	</g>
</g>
</svg>
