<?xml version="1.0" encoding="utf-8"?>
<!-- Generator: Adobe Illustrator 25.0.0, SVG Export Plug-In . SVG Version: 6.00 Build 0)  -->
<svg version="1.1" id="Layer_1" xmlns="http://www.w3.org/2000/svg" xmlns:xlink="http://www.w3.org/1999/xlink" x="0px" y="0px"
	 viewBox="0 0 40 40" style="enable-background:new 0 0 40 40;" xml:space="preserve">
<style type="text/css">
	.st0{fill:#BFBFBF;}
	.st1{fill:#E60012;}
	.st2{fill:#FFD1AE;}
	.st3{fill:#432918;}
	.st4{fill:#FFFFFF;}
	.st5{fill:#AD000E;}
	.st6{fill:#1D1D1B;}
	.st7{fill:#FFE3CE;}
	.st8{fill:none;stroke:#E60012;stroke-width:2;stroke-linecap:round;stroke-miterlimit:10;}
	.st9{fill:url(#SVGID_1_);}
	.st10{fill:#F5606A;}
	.st11{fill:#F9A0A6;}
	.st12{fill:#FF4469;}
	.st13{fill:url(#SVGID_2_);}
	.st14{fill:url(#SVGID_3_);}
	.st15{fill:none;stroke:#1D1D1B;stroke-linecap:round;stroke-miterlimit:10;}
	.st16{fill:#FF5369;}
	.st17{fill:none;stroke:#FFFFFF;stroke-linecap:round;stroke-miterlimit:10;}
	.st18{fill:none;stroke:#E60012;stroke-width:2;stroke-linecap:round;stroke-linejoin:round;stroke-miterlimit:10;}
	.st19{fill:#1878F3;}
	.st20{fill:#54ACED;}
	.st21{fill:#F30074;}
	.st22{filter:url(#Adobe_OpacityMaskFilter);}
	.st23{filter:url(#Adobe_OpacityMaskFilter_1_);}
	.st24{mask:url(#SVGID_4_);fill:url(#SVGID_5_);}
	.st25{fill:#FF0000;}
	.st26{fill:#9F32FF;}
	.st27{fill:#5865F2;}
	.st28{fill:#006699;}
	.st29{fill:#FECC47;}
	.st30{fill:#010101;}
	.st31{fill:#FF5300;}
	.st32{fill:#70D755;}
	.st33{fill:#FF9900;}
	.st34{fill-rule:evenodd;clip-rule:evenodd;}
	.st35{fill:#333333;}
	.st36{fill-rule:evenodd;clip-rule:evenodd;fill:#EE1D52;}
	.st37{fill-rule:evenodd;clip-rule:evenodd;fill:#FFFFFF;}
	.st38{fill-rule:evenodd;clip-rule:evenodd;fill:#69C9D0;}
	.st39{filter:url(#Adobe_OpacityMaskFilter_2_);}
	.st40{filter:url(#Adobe_OpacityMaskFilter_3_);}
	.st41{mask:url(#SVGID_6_);fill:url(#SVGID_7_);}
	.st42{fill:#6BCDFD;}
	.st43{fill:url(#SVGID_8_);}
	.st44{fill:none;stroke:#1D1D1B;stroke-width:2;stroke-linecap:round;stroke-miterlimit:10;}
	.st45{fill:#58AEFF;}
	.st46{fill:url(#SVGID_9_);}
	.st47{fill:url(#SVGID_10_);}
	.st48{fill:url(#SVGID_11_);}
	.st49{fill:url(#SVGID_12_);}
	.st50{fill:none;stroke:#E60012;stroke-width:2;stroke-miterlimit:10;}
	.st51{fill:none;stroke:#E60012;stroke-width:4;stroke-linecap:round;stroke-miterlimit:10;}
	.st52{fill:none;stroke:#6BCDFD;stroke-width:4;stroke-linecap:round;stroke-linejoin:round;stroke-miterlimit:10;}
</style>
<g>
	<circle class="st25" cx="20" cy="20" r="20"/>
	<path class="st4" d="M29.58,14.73c-0.23-0.86-0.91-1.54-1.77-1.77C26.25,12.54,20,12.54,20,12.54s-6.25,0-7.81,0.42
		c-0.86,0.23-1.54,0.91-1.77,1.77C10,16.29,10,19.54,10,19.54s0,3.25,0.42,4.81c0.23,0.86,0.91,1.54,1.77,1.77
		c1.56,0.42,7.81,0.42,7.81,0.42s6.25,0,7.81-0.42c0.86-0.23,1.54-0.91,1.77-1.77C30,22.8,30,19.54,30,19.54S30,16.29,29.58,14.73z
		 M17.95,22.5v-5.91l5.23,2.95L17.95,22.5z"/>
</g>
</svg>
